<svg width="605" height="131" viewBox="0 0 605 131" fill="none" xmlns="http://www.w3.org/2000/svg">
<path d="M218.74 38.08V93.13H206.85V85.2C202.67 91.03 196.17 94.56 187.59 94.56C172.59 94.56 160.17 81.9 160.17 65.56C160.17 49.22 172.61 36.61 187.59 36.61C196.17 36.61 202.67 40.13 206.85 45.85V38.08H218.74ZM206.85 65.6C206.85 55.36 199.37 47.99 189.46 47.99C179.55 47.99 172.06 55.36 172.06 65.6C172.06 75.84 179.55 83.22 189.46 83.22C199.37 83.22 206.85 75.84 206.85 65.6Z" fill="#212531"/>
<path d="M287.38 65.6C287.38 82.01 274.94 94.6 259.97 94.6C251.38 94.6 244.88 91.07 240.7 85.35V115.19H228.81V38.08H240.7V46C244.88 40.16 251.38 36.64 259.97 36.64C274.94 36.65 287.38 49.31 287.38 65.6ZM275.49 65.6C275.49 55.36 268 48 258.1 48C248.2 48 240.7 55.37 240.7 65.61C240.7 75.85 248.19 83.23 258.1 83.23C268.01 83.23 275.49 75.84 275.49 65.6Z" fill="#212531"/>
<path d="M353.91 65.6C353.91 82.01 341.47 94.6 326.5 94.6C317.91 94.6 311.41 91.07 307.23 85.35V115.19H295.34V38.08H307.23V46C311.41 40.16 317.91 36.64 326.5 36.64C341.47 36.65 353.91 49.31 353.91 65.6ZM342 65.6C342 55.36 334.54 48 324.63 48C314.72 48 307.23 55.37 307.23 65.61C307.23 75.85 314.72 83.23 324.63 83.23C334.54 83.23 342 75.84 342 65.6Z" fill="#212531"/>
<path d="M378.05 49.53V76C378.05 83 382.67 82.94 391.7 82.5V93.13C373.42 95.33 366.15 90.26 366.15 75.95V49.53H356V38.08H366.12V26.19L378.02 22.66V38.08H391.7V49.53H378.05Z" fill="#212531"/>
<path d="M394.71 65.6C394.696 59.8475 396.389 54.2203 399.575 49.4305C402.761 44.6408 407.296 40.9039 412.607 38.6929C417.917 36.482 423.765 35.8963 429.408 37.01C435.052 38.1238 440.238 40.8869 444.311 44.9496C448.383 49.0123 451.159 54.192 452.286 59.8329C453.414 65.4738 452.842 71.3224 450.644 76.6384C448.446 81.9543 444.72 86.4985 439.938 89.6959C435.156 92.8932 429.532 94.6 423.78 94.6C419.956 94.6454 416.161 93.9268 412.618 92.4864C409.075 91.046 405.856 88.9127 403.148 86.2117C400.44 83.5106 398.299 80.2961 396.85 76.7567C395.402 73.2174 394.674 69.4243 394.71 65.6ZM440.95 65.6C440.95 55.6 433.47 48.21 423.78 48.21C414.09 48.21 406.6 55.58 406.6 65.6C406.6 75.62 414.09 83 423.78 83C433.47 83 441 75.62 441 65.6H440.95Z" fill="#212531"/>
<path d="M519.31 65.6C519.31 82.01 506.87 94.6 491.89 94.6C483.31 94.6 476.81 91.07 472.63 85.35V115.19H460.74V38.08H472.63V46C476.81 40.16 483.31 36.64 491.89 36.64C506.87 36.65 519.31 49.31 519.31 65.6ZM507.42 65.6C507.42 55.36 499.93 48 490 48C480.07 48 472.61 55.37 472.61 65.61C472.61 75.85 480.11 83.22 490 83.22C499.89 83.22 507.42 75.84 507.42 65.6Z" fill="#212531"/>
<path d="M525.34 22.22C525.34 20.7169 525.786 19.2475 526.621 17.9977C527.456 16.7478 528.643 15.7737 530.032 15.1985C531.42 14.6233 532.948 14.4728 534.423 14.766C535.897 15.0593 537.251 15.7831 538.314 16.846C539.377 17.9089 540.101 19.2631 540.394 20.7373C540.687 22.2116 540.537 23.7397 539.961 25.1284C539.386 26.5171 538.412 27.7041 537.162 28.5392C535.913 29.3743 534.443 29.82 532.94 29.82C530.925 29.8174 528.994 29.0158 527.569 27.5911C526.144 26.1664 525.343 24.2348 525.34 22.22ZM527 38.08H538.89V93.13H527V38.08Z" fill="#212531"/>
<path d="M604.91 38.08V93.13H593V85.2C588.81 91.03 582.32 94.56 573.73 94.56C558.73 94.56 546.31 81.9 546.31 65.56C546.31 49.22 558.76 36.61 573.73 36.61C582.32 36.61 588.81 40.13 593 45.85V38.08H604.91ZM593 65.6C593 55.36 585.53 48 575.62 48C565.71 48 558.23 55.37 558.23 65.61C558.23 75.85 565.71 83.23 575.62 83.23C585.53 83.23 593 75.84 593 65.6Z" fill="#212531"/>
<path d="M30.13 1.65963e-06C34.0876 -0.00131184 38.0066 0.777054 41.6633 2.29064C45.32 3.80423 48.6427 6.02338 51.4416 8.82134C54.2405 11.6193 56.4607 14.9412 57.9755 18.5974C59.4903 22.2536 60.27 26.1724 60.27 30.13V60.27H30.13C26.1724 60.27 22.2536 59.4903 18.5974 57.9755C14.9412 56.4607 11.6193 54.2405 8.82134 51.4416C6.02338 48.6427 3.80423 45.32 2.29064 41.6633C0.777054 38.0066 -0.00131184 34.0876 1.65963e-06 30.13C1.65963e-06 22.139 3.1744 14.4753 8.82487 8.82487C14.4753 3.1744 22.139 1.65963e-06 30.13 1.65963e-06Z" fill="#228BF4"/>
<path d="M92.41 15.0699C98.4022 15.0726 104.148 17.4548 108.384 21.6929C112.62 25.9309 115 31.6778 115 37.6699C115 40.6378 114.415 43.5766 113.28 46.3186C112.144 49.0606 110.479 51.552 108.381 53.6506C106.282 55.7492 103.791 57.4139 101.049 58.5496C98.3067 59.6854 95.3679 60.2699 92.4 60.2699H69.81V37.6699C69.81 31.6761 72.1911 25.9277 76.4294 21.6893C80.6677 17.451 86.4161 15.0699 92.41 15.0699Z" fill="#FF457A"/>
<path d="M99.94 130.08C95.9833 130.08 92.0653 129.301 88.4098 127.786C84.7542 126.272 81.4327 124.053 78.6349 121.255C75.8371 118.457 73.6177 115.136 72.1035 111.48C70.5893 107.825 69.81 103.907 69.81 99.9499V69.8199H99.94C103.897 69.8186 107.815 70.5967 111.471 72.1096C115.127 73.6226 118.449 75.8409 121.248 78.6378C124.047 81.4347 126.267 84.7554 127.783 88.4105C129.298 92.0655 130.079 95.9832 130.08 99.94C130.081 103.898 129.303 107.818 127.788 111.476C126.274 115.133 124.054 118.456 121.255 121.255C118.456 124.054 115.133 126.274 111.476 127.788C107.818 129.303 103.898 130.081 99.94 130.08Z" fill="#A259FF"/>
<path d="M37.67 115.01C34.7021 115.01 31.7633 114.425 29.0214 113.29C26.2794 112.154 23.788 110.489 21.6894 108.391C19.5908 106.292 17.9261 103.801 16.7903 101.059C15.6546 98.3167 15.07 95.3779 15.07 92.41C15.0727 86.4178 17.4549 80.672 21.6929 76.4359C25.931 72.1997 31.6779 69.82 37.67 69.82H60.27L60.27 92.41C60.27 98.4039 57.889 104.152 53.6506 108.391C49.4123 112.629 43.6639 115.01 37.67 115.01Z" fill="#00D474"/>
</svg>
